<?xml version="1.0" standalone="no"?>
<!DOCTYPE svg PUBLIC "-//W3C//DTD SVG 20010904//EN" "http://www.w3.org/TR/2001/REC-SVG-20010904/DTD/svg10.dtd">
<svg xmlns="http://www.w3.org/2000/svg" version="1.0" width="1112.000000pt" height="776.000000pt" viewBox="0 0 1112.000000 776.000000" preserveAspectRatio="xMidYMid meet">
<metadata>
Created by potrace 1.16, written by Peter Selinger 2001-2019
<meta name="Producer" content="Online-Convert"/></metadata>
<g transform="translate(0.000000,776.000000) scale(0.100000,-0.100000)" fill="#000000" stroke="none">
<path d="M3918 5894 c-3 -3 -20 -7 -36 -9 -41 -5 -114 -43 -107 -55 3 -5 0 -7 -8 -4 -9 3 -35 -18 -69 -56 -116 -128 -137 -286 -58 -447 37 -75 101 -134 190 -177 59 -28 74 -31 160 -31 64 0 103 5 120 14 14 8 32 15 41 16 20 2 74 39 115 80 30 30 84 108 89 129 1 6 8 25 14 41 20 47 17 182 -4 235 -11 25 -26 51 -34 58 -13 11 -13 12 -1 6 19 -10 -10 37 -49 80 -29 32 -123 96 -149 101 -9 2 -30 8 -45 14 -29 11 -159 15 -169 5z"/>
<path d="M7120 5891 c-72 -25 -121 -52 -114 -62 4 -8 3 -9 -5 -5 -6 4 -22 -1 -36 -12 -19 -15 -21 -22 -12 -32 9 -10 9 -11 -2 -5 -9 5 -24 -4 -47 -31 -19 -21 -35 -42 -35 -46 -3 -15 -6 -23 -24 -63 -14 -29 -19 -64 -19 -125 -1 -85 18 -165 35 -155 5 4 6 -2 2 -11 -5 -13 -3 -15 7 -9 9 5 11 4 6 -3 -8 -13 38 -83 81 -124 15 -15 60 -42 98 -60 64 -30 78 -33 165 -33 88 0 101 3 160 32 106 54 185 141 215 238 22 74 20 193 -6 257 -27 69 -69 130 -85 124 -8 -3 -16 0 -20 6 -4 7 -3 8 4 4 7 -4 12 -3 12 1 0 13 -88 76 -135 97 -45 21 -203 32 -245 17z"/>
<path d="M2847 5616 c-51 -19 -72 -37 -55 -48 9 -6 7 -8 -6 -6 -24 4 -68 -66 -63 -99 2 -12 0 -24 -6 -26 -17 -5 12 -111 54 -196 22 -45 42 -81 45 -81 3 0 3 4 -1 9 -3 5 -1 12 4 16 6 3 8 -4 6 -17 -5 -21 11 -43 133 -187 26 -30 79 -89 118 -131 77 -82 176 -188 219 -235 15 -16 34 -43 41 -58 9 -16 20 -25 26 -21 7 4 8 3 4 -4 -4 -7 9 -39 28 -72 20 -33 33 -60 30 -60 -2 0 7 -21 21 -47 14 -27 25 -54 25 -61 0 -7 5 -10 12 -6 7 5 8 3 4 -5 -10 -16 13 -73 27 -64 6 3 7 1 3 -6 -9 -15 3 -53 15 -46 5 3 6 0 3 -8 -3 -8 4 -36 14 -63 l20 -49 10 40 c6 22 11 69 11 105 1 36 4 81 8 100 13 76 71 158 134 190 47 24 137 26 180 5 16 -9 35 -13 41 -9 6 4 8 3 5 -3 -4 -5 5 -20 19 -32 35 -30 71 -116 84 -198 14 -85 13 -466 -1 -593 -12 -111 -41 -257 -63 -319 -22 -59 -21 -60 22 -20 20 20 58 53 84 73 27 22 45 43 41 50 -3 6 -3 8 2 4 9 -8 56 24 118 82 21 19 45 39 53 43 8 5 11 13 8 19 -4 6 -3 8 3 5 6 -4 21 4 34 16 13 13 45 40 71 61 26 21 45 43 41 49 -3 6 -1 7 6 3 30 -19 216 196 297 344 10 19 23 38 28 41 5 4 5 12 1 19 -5 8 -4 11 2 7 13 -8 87 119 77 134 -4 8 -3 9 4 5 15 -9 135 237 135 277 0 15 3 23 7 17 9 -15 51 125 43 145 -4 12 -3 16 4 12 11 -7 34 88 34 145 1 101 -3 167 -12 203 -37 148 -185 285 -326 302 -66 7 -123 -19 -186 -85 -24 -26 -73 -74 -108 -107 -35 -33 -62 -67 -61 -75 2 -10 0 -11 -5 -3 -6 8 -29 2 -83 -25 l-74 -37 -145 0 c-121 1 -160 5 -231 24 -93 26 -258 105 -326 158 -24 18 -44 30 -44 27 0 -3 -21 15 -47 40 -34 32 -54 44 -68 41 -11 -3 -14 -2 -7 1 10 5 10 9 1 20 -16 20 -29 17 -23 -3 5 -15 4 -15 -4 -3 -6 8 -9 17 -7 20 5 8 -94 98 -171 156 -27 21 -82 55 -123 76 -81 42 -143 49 -214 24z"/>
<path d="M8156 5597 c-75 -37 -118 -66 -111 -77 3 -4 -1 -7 -9 -6 -7 0 -76 -51 -152 -114 -158 -133 -253 -204 -307 -231 -22 -12 -35 -24 -31 -31 4 -7 3 -8 -4 -4 -6 4 -29 -2 -51 -14 -143 -73 -346 -105 -501 -80 -41 7 -85 13 -97 14 -11 0 -19 4 -17 7 2 3 -9 12 -24 20 -15 7 -37 22 -49 32 -12 11 -27 16 -34 12 -7 -5 -10 -4 -6 2 9 15 -49 67 -64 58 -8 -5 -10 -4 -5 4 5 7 -12 32 -42 63 -46 47 -52 50 -69 37 -16 -13 -17 -12 -5 3 18 22 13 29 -43 57 -62 31 -133 24 -218 -21 -100 -54 -166 -131 -203 -238 -33 -97 -21 -322 23 -430 3 -8 7 -21 9 -27 14 -68 141 -346 154 -338 4 3 7 -3 6 -13 0 -9 4 -16 11 -15 7 2 10 -3 7 -11 -7 -19 45 -108 58 -99 7 3 8 1 4 -6 -10 -15 53 -113 67 -104 6 3 7 1 3 -6 -10 -15 33 -83 46 -75 7 4 8 2 4 -4 -4 -7 -2 -17 4 -24 6 -7 39 -53 74 -103 53 -75 86 -108 197 -196 74 -59 182 -146 242 -193 104 -84 126 -98 111 -74 -4 7 -3 8 5 4 6 -4 9 -11 6 -16 -3 -5 -1 -11 5 -15 6 -4 10 5 10 19 0 14 -3 26 -7 26 -5 0 -9 42 -11 93 -2 51 -6 115 -10 141 -12 85 6 583 24 661 15 63 48 130 80 163 50 50 172 66 238 32 22 -10 43 -17 49 -13 6 4 7 1 2 -7 -6 -10 -4 -12 9 -7 10 4 15 3 11 -3 -7 -11 24 -62 34 -56 4 3 7 -3 7 -12 1 -9 9 -44 18 -77 9 -32 16 -87 16 -121 0 -68 9 -124 19 -124 13 0 103 248 95 261 -4 7 -3 10 3 6 13 -8 26 20 16 36 -3 7 -2 9 2 4 11 -10 58 82 51 100 -3 8 -2 11 4 8 13 -8 32 32 25 55 -3 10 -1 21 4 25 7 3 8 0 5 -9 -10 -27 11 -17 29 13 18 31 67 89 158 186 31 33 76 82 102 109 25 28 43 54 40 60 -3 5 -1 6 5 2 6 -3 28 14 49 40 21 26 48 56 60 67 12 11 20 24 17 29 -3 4 -1 8 4 8 17 0 93 110 86 123 -4 6 -3 9 1 5 12 -11 60 78 79 143 8 30 15 74 14 98 -1 51 -24 115 -38 106 -6 -4 -7 1 -3 11 5 13 3 16 -10 11 -10 -4 -14 -2 -12 6 6 16 -63 60 -81 53 -9 -3 -12 -1 -9 5 5 7 -14 9 -55 8 -45 -2 -79 -11 -124 -32z"/>
<path d="M3214 2340 c-69 -22 -127 -73 -145 -127 -6 -19 -9 -63 -7 -97 3 -55 9 -68 42 -109 21 -26 42 -44 47 -41 5 3 9 1 9 -4 0 -14 57 -35 71 -26 7 4 10 3 6 -3 -8 -13 82 -23 146 -16 36 4 47 9 43 20 -3 8 -2 12 3 9 10 -7 21 17 21 44 0 18 -2 18 -23 -3 -13 -12 -21 -26 -19 -31 3 -5 0 -6 -6 -2 -6 3 -28 3 -49 -2 -80 -18 -161 45 -181 142 -14 66 2 163 30 194 39 41 114 49 191 20 15 -6 27 -14 27 -17 0 -4 7 -16 15 -27 13 -18 14 -15 15 29 0 27 -4 46 -9 43 -5 -4 -11 -2 -13 3 -1 5 -37 12 -78 15 -59 5 -88 2 -136 -14z"/>
<path d="M5235 2353 c-71 -16 -95 -25 -90 -33 3 -5 0 -12 -6 -16 -8 -4 -9 -3 -5 4 4 7 3 12 -2 12 -15 0 -73 -69 -87 -104 -20 -48 -12 -134 18 -193 18 -35 73 -76 89 -67 6 4 8 3 5 -3 -4 -6 10 -15 31 -21 59 -17 139 -25 146 -14 3 5 17 7 30 5 34 -7 54 16 61 69 l6 43 -16 -32 c-26 -49 -94 -66 -166 -41 -63 21 -100 82 -107 178 -6 84 22 152 71 170 18 6 39 15 48 20 9 4 22 4 30 -1 8 -5 28 -9 45 -9 33 0 74 -35 74 -63 0 -9 5 -17 10 -17 6 0 10 22 10 49 l0 48 -69 12 c-72 11 -91 12 -126 4z"/>
<path d="M6405 2354 c-11 -3 -39 -12 -63 -20 -36 -14 -42 -19 -37 -37 5 -17 4 -19 -4 -7 -8 12 -13 11 -31 -5 -29 -27 -53 -73 -46 -91 4 -9 2 -12 -5 -8 -11 6 -9 -45 4 -118 13 -79 119 -150 223 -150 34 0 68 3 75 8 8 5 20 9 27 10 32 5 44 15 38 30 -6 15 -4 15 11 3 15 -12 16 -12 10 4 -4 10 -3 16 2 13 10 -7 33 19 55 61 17 33 21 106 9 163 -8 44 -80 115 -129 129 -49 14 -113 21 -139 15z m92 -46 c7 -5 17 -7 22 -3 7 3 8 0 5 -9 -3 -9 -2 -16 4 -16 5 0 18 -19 27 -42 22 -54 23 -176 2 -235 -9 -22 -14 -43 -12 -45 2 -1 -25 -4 -60 -6 -76 -4 -101 9 -135 70 -31 56 -40 170 -16 232 15 39 32 55 76 70 19 6 71 -3 87 -16z"/>
<path d="M7991 2350 c-54 -13 -111 -44 -106 -57 2 -7 -2 -10 -9 -7 -23 9 -66 -94 -66 -159 0 -36 4 -56 10 -52 5 3 7 0 4 -8 -8 -21 57 -99 104 -125 78 -44 209 -29 278 31 47 40 62 79 69 172 8 104 -81 197 -200 209 -28 3 -65 1 -84 -4z m87 -35 c57 -23 85 -78 90 -180 3 -63 0 -89 -14 -120 -10 -22 -18 -45 -19 -52 0 -6 -4 -15 -9 -20 -5 -4 -7 -3 -3 3 4 7 -13 9 -53 6 -52 -4 -61 -2 -84 21 -13 14 -27 23 -29 21 -2 -3 -12 20 -21 50 -18 58 -20 226 -3 226 5 0 7 7 3 15 -3 8 -2 14 2 13 4 0 23 6 42 15 44 20 51 20 98 2z"/>
<path d="M9605 2354 c-88 -22 -144 -64 -170 -128 -34 -82 -15 -190 42 -241 44 -40 103 -67 134 -63 16 3 25 0 22 -5 -4 -6 6 -8 27 -4 18 4 43 7 56 7 12 0 29 6 36 13 7 6 20 13 28 15 24 5 82 72 76 88 -3 8 -2 13 3 10 10 -7 23 22 16 34 -3 5 -1 11 5 15 33 20 -9 166 -58 202 -63 46 -158 71 -217 57z m78 -37 c18 -8 38 -21 45 -30 8 -9 21 -13 30 -10 12 3 13 2 5 -4 -10 -7 -9 -19 2 -55 25 -84 16 -214 -16 -234 -6 -3 -8 -11 -6 -18 2 -6 -5 -11 -17 -12 -11 0 -25 -2 -31 -3 -5 -2 -26 -3 -46 -2 -42 1 -94 47 -104 92 -4 16 -10 29 -14 29 -4 0 -7 37 -6 83 2 105 26 156 80 170 34 8 45 7 78 -6z"/>
<path d="M10145 2349 c-64 -15 -97 -31 -91 -45 3 -8 0 -11 -8 -8 -7 3 -21 -5 -32 -17 -10 -13 -14 -19 -8 -16 7 4 18 -1 25 -11 13 -15 12 -16 -2 -4 -23 17 -45 -5 -60 -60 -18 -67 8 -155 59 -206 35 -33 102 -64 128 -59 13 2 24 0 24 -5 0 -12 87 1 127 19 73 34 133 127 133 207 0 84 -63 165 -154 196 -60 22 -80 23 -141 9z m94 -35 c21 -8 42 -23 45 -32 4 -9 14 -30 24 -47 23 -41 23 -186 0 -232 -12 -24 -13 -35 -4 -44 9 -10 8 -11 -4 -2 -10 8 -21 9 -30 3 -8 -6 -36 -10 -61 -10 -38 0 -52 5 -77 30 -43 40 -66 124 -59 205 8 79 24 115 62 131 40 17 57 17 104 -2z"/>
<path d="M266 2340 c17 -7 22 -20 27 -77 4 -37 7 -102 7 -144 0 -78 22 -155 40 -144 5 3 7 0 5 -7 -6 -16 43 -48 76 -49 92 -3 124 2 159 25 40 26 75 87 67 117 -3 10 -1 19 4 19 5 0 9 58 9 129 0 127 1 130 23 134 12 2 -16 4 -63 4 -47 0 -74 -3 -60 -6 l25 -7 3 -154 c3 -169 -4 -203 -47 -224 -34 -17 -96 -5 -124 23 -20 20 -22 33 -26 186 l-3 165 23 9 c18 7 -2 10 -71 10 -62 0 -88 -3 -74 -9z"/>
<path d="M800 2171 c0 -209 -4 -238 -34 -244 -11 -2 17 -3 64 -3 47 0 73 2 59 4 -36 4 -45 44 -39 164 l5 97 70 -65 c116 -107 162 -144 170 -136 5 4 5 2 2 -5 -7 -11 45 -63 63 -63 17 0 20 36 20 213 0 100 4 187 8 193 4 6 14 13 22 16 8 3 -19 6 -60 6 -43 -1 -64 -4 -50 -7 25 -7 25 -8 28 -134 1 -70 -1 -127 -5 -127 -4 0 -30 20 -57 45 -26 25 -53 42 -59 38 -5 -3 -7 -2 -4 4 9 14 -171 183 -194 183 -5 0 -9 -79 -9 -179z"/>
<path d="M1310 2343 c8 -3 18 -11 22 -17 4 -6 8 -92 8 -191 0 -99 -4 -185 -8 -191 -4 -6 -14 -14 -22 -17 -8 -3 30 -5 85 -5 55 1 89 4 75 7 l-25 7 -3 201 -2 202 22 4 c13 2 -20 4 -72 4 -52 1 -88 -1 -80 -4z"/>
<path d="M1546 2328 c-3 -13 -6 -32 -6 -43 1 -18 1 -19 11 -2 5 9 8 21 4 26 -3 5 0 13 6 17 8 4 9 3 5 -4 -5 -9 11 -12 58 -12 l66 0 0 -185 c0 -183 0 -186 -22 -194 -16 -6 10 -9 77 -9 55 1 89 4 75 7 l-25 7 -3 187 -2 187 57 0 c65 0 78 -6 86 -35 2 -11 4 1 4 28 l0 47 -192 0 c-191 0 -193 0 -199 -22z"/>
<path d="M2018 2339 c22 -8 22 -11 22 -196 0 -103 -4 -193 -8 -199 -4 -7 -16 -14 -27 -17 -11 -2 48 -5 131 -5 l152 -1 6 31 c10 50 7 66 -7 38 -11 -22 -20 -25 -71 -28 -32 -2 -62 1 -67 5 -4 4 -9 44 -10 88 l-2 79 26 -1 c15 -1 41 -1 57 -2 22 -1 33 -7 39 -23 7 -19 9 -15 12 24 4 44 3 47 -18 42 -12 -3 -43 -7 -68 -7 l-45 -2 0 75 0 75 52 -2 c29 -1 57 -2 61 -2 4 -1 11 -11 16 -23 7 -20 9 -17 12 20 l5 43 -146 -2 c-93 -1 -137 -4 -122 -10z"/>
<path d="M2398 2343 c9 -3 12 -54 12 -203 0 -179 -2 -200 -17 -210 -13 -7 25 -9 135 -8 121 2 155 6 162 18 5 8 6 18 3 24 -3 5 -1 6 6 2 6 -4 8 -12 5 -18 -4 -6 3 -5 16 2 18 10 20 14 9 22 -11 7 -9 8 5 4 42 -14 89 73 90 166 1 58 -3 72 -29 110 -19 27 -48 52 -78 67 -43 21 -64 24 -190 27 -78 1 -136 0 -129 -3z m243 -52 c16 -12 28 -18 27 -14 -2 4 2 8 7 8 6 0 9 -4 7 -9 -1 -4 8 -29 20 -55 18 -35 23 -62 22 -113 -1 -69 -13 -97 -55 -136 -26 -25 -117 -35 -137 -16 -7 8 -17 12 -20 10 -8 -5 -5 321 3 342 8 21 89 10 126 -17z"/>
<path d="M3540 2341 l25 -7 3 -179 c1 -99 0 -190 -3 -202 -3 -12 -15 -23 -28 -25 -12 -2 14 -5 58 -6 l81 -2 -3 67 c-2 38 -5 85 -6 106 l-3 37 98 0 c71 0 98 -3 99 -12 4 -90 3 -125 -3 -121 -5 2 -7 -4 -6 -14 3 -38 -3 -52 -24 -56 -13 -2 22 -4 77 -4 55 0 90 2 79 4 -30 6 -34 35 -34 235 0 166 0 169 23 177 15 7 -2 9 -61 10 -73 0 -81 -2 -67 -15 17 -17 22 -149 6 -158 -11 -7 -167 -10 -178 -3 -4 3 -7 40 -5 82 3 67 6 77 25 85 15 6 -11 9 -78 8 -55 -1 -89 -4 -75 -7z"/>
<path d="M4090 2339 c25 -9 25 -10 22 -118 -4 -147 9 -216 50 -258 17 -18 35 -30 39 -27 4 2 10 0 13 -5 6 -9 38 -13 103 -13 46 1 107 27 98 43 -4 5 -1 8 7 7 7 -2 21 14 31 35 15 30 20 69 25 187 5 142 6 149 26 153 12 2 -17 4 -64 4 -47 0 -74 -2 -60 -6 l25 -7 0 -173 c0 -154 -2 -173 -18 -182 -9 -6 -23 -16 -29 -23 -8 -9 -24 -10 -53 -5 -25 4 -45 3 -53 -3 -9 -8 -16 -8 -25 1 -9 10 -8 11 6 6 9 -4 17 -3 17 3 0 12 -25 34 -31 27 -3 -2 -6 74 -8 170 l-3 175 24 9 c16 6 -5 9 -72 9 -68 0 -88 -2 -70 -9z"/>
<path d="M4598 2343 c22 -4 22 -5 22 -204 0 -198 0 -200 -22 -209 -16 -6 8 -9 77 -8 55 0 89 3 75 7 -24 6 -25 11 -28 88 -3 75 -1 81 18 86 17 4 26 -1 38 -25 10 -17 25 -39 34 -49 9 -9 14 -19 12 -22 -2 -2 3 -10 13 -18 9 -8 14 -9 10 -2 -4 6 -3 14 1 17 5 3 9 -6 8 -20 -1 -37 51 -64 124 -64 54 1 55 1 25 14 -16 7 -48 38 -70 67 -22 30 -46 60 -53 67 -30 32 -42 95 -16 85 18 -7 52 58 50 93 -3 33 -29 78 -39 67 -4 -3 -7 -1 -7 5 0 20 -73 32 -185 31 -60 -1 -100 -4 -87 -6z m184 -37 c20 -11 28 -11 31 -3 3 7 5 3 6 -8 0 -11 3 -39 7 -63 3 -26 1 -55 -6 -73 -11 -26 -17 -29 -55 -29 l-43 0 -4 79 c-2 43 -2 86 0 95 4 20 28 20 64 2z"/>
<path d="M5520 2341 c25 -7 25 -8 28 -136 2 -71 1 -162 -3 -201 -6 -64 -9 -73 -28 -77 -12 -2 23 -5 78 -5 55 0 93 2 85 5 -32 11 -40 37 -40 122 l0 86 95 0 95 0 0 -98 c0 -92 -1 -98 -22 -107 -16 -6 8 -9 77 -8 55 0 89 3 75 7 l-25 7 -3 194 c-2 172 -1 196 14 207 14 10 0 12 -72 12 -62 -1 -82 -4 -66 -10 20 -8 22 -15 22 -91 l0 -83 -95 3 -96 3 3 77 c3 70 5 78 28 89 22 11 12 13 -75 12 -56 -1 -89 -4 -75 -8z"/>
<path d="M6778 2339 c22 -8 22 -10 22 -204 0 -194 0 -196 -22 -205 -16 -6 8 -9 77 -8 55 0 89 3 75 7 -24 7 -25 11 -30 100 -3 51 -3 95 -1 97 9 9 93 3 113 -7 18 -10 20 -9 15 5 -4 9 -2 16 3 16 6 0 10 9 10 20 0 18 -3 19 -20 10 -22 -12 -120 -10 -120 3 0 4 0 36 0 72 l0 65 59 0 c50 0 61 -3 74 -22 15 -22 15 -22 15 19 l0 41 -147 0 c-95 0 -138 -3 -123 -9z"/>
<path d="M7320 2252 c0 -55 -3 -147 -7 -206 -5 -97 -8 -109 -27 -116 -14 -6 6 -9 59 -8 44 0 71 2 60 5 -11 3 -23 8 -27 11 -9 9 -19 252 -10 252 4 0 42 -34 85 -76 42 -42 78 -74 78 -70 1 3 2 10 3 15 0 5 5 13 10 18 5 4 6 3 2 -4 -3 -6 -2 -14 4 -18 6 -4 8 -10 5 -15 -10 -16 104 -120 130 -120 3 0 5 35 5 78 0 42 3 135 7 205 6 118 8 130 27 137 16 7 10 9 -26 9 -36 1 -48 -3 -52 -16 -3 -10 -2 -71 2 -135 6 -97 5 -118 -7 -118 -7 0 -43 29 -80 64 -64 61 -162 152 -204 189 -11 9 -24 17 -29 17 -4 0 -8 -44 -8 -98z"/>
<path d="M8370 2342 l25 -8 3 -169 c3 -192 -1 -232 -26 -238 -9 -3 28 -5 83 -4 55 0 88 2 73 4 -30 5 -36 21 -40 113 -2 53 -1 55 24 58 22 3 32 -4 52 -37 14 -21 30 -42 36 -46 6 -3 8 -10 6 -14 -8 -12 61 -74 72 -67 6 3 13 2 17 -4 3 -5 32 -10 63 -9 53 1 54 2 25 10 -18 5 -33 13 -33 17 0 4 -11 19 -23 33 -13 13 -37 44 -52 67 -15 23 -32 42 -36 42 -5 0 -8 5 -6 12 1 7 -3 12 -10 13 -6 0 -14 3 -17 8 -3 4 -3 5 1 2 11 -8 80 71 87 100 8 33 -10 72 -47 99 -24 18 -44 21 -165 23 -75 1 -126 -1 -112 -5z m203 -47 c23 -22 27 -34 27 -78 0 -60 -14 -85 -50 -91 -51 -8 -60 7 -60 98 0 45 3 86 7 89 14 15 49 6 76 -18z"/>
<path d="M8765 2340 c13 -5 26 -28 39 -69 11 -34 23 -58 29 -54 6 3 7 1 3 -6 -10 -16 3 -53 16 -45 7 4 8 2 4 -4 -7 -12 0 -34 49 -166 14 -38 25 -71 25 -72 0 -2 4 -4 8 -4 5 0 16 15 24 33 9 17 27 57 42 87 14 30 34 79 44 107 l19 53 33 -74 c19 -41 38 -72 44 -69 5 4 6 1 2 -6 -8 -12 42 -131 55 -131 8 0 52 100 74 170 10 30 22 60 26 66 5 6 7 13 4 16 -3 2 10 40 29 83 25 61 39 81 57 86 18 5 14 7 -19 8 -32 1 -41 -2 -36 -11 6 -10 4 -10 -7 0 -7 6 -24 11 -38 11 -17 -1 -20 -3 -8 -6 9 -2 17 -14 17 -25 0 -26 -59 -220 -71 -232 -5 -6 -23 22 -44 70 -47 105 -88 184 -96 184 -10 0 -39 -82 -32 -93 3 -6 2 -7 -4 -4 -12 7 -35 -62 -26 -76 3 -6 1 -7 -5 -3 -7 4 -12 3 -12 -2 0 -5 -7 -26 -15 -45 -10 -25 -20 -35 -30 -31 -8 4 -13 10 -10 14 7 12 -50 171 -59 163 -4 -4 -4 0 0 10 3 9 1 23 -5 31 -9 11 -8 18 4 30 15 14 9 15 -67 14 -49 0 -75 -4 -63 -8z"/>
<path d="M10528 2340 c22 -9 22 -12 22 -205 0 -194 0 -196 -22 -204 -15 -6 24 -9 112 -10 163 -1 212 12 270 75 49 53 69 133 49 201 -15 55 -75 118 -126 133 -47 14 -338 24 -305 10z m239 -39 c60 -28 97 -101 94 -189 -4 -116 -39 -161 -127 -162 -83 0 -83 1 -86 193 -2 104 1 169 7 171 24 10 73 4 112 -13z"/>
</g>
</svg>
